<mxfile host="65bd71144e">
    <diagram id="d4zYfneUGAiSxEOC73_Y" name="Page-1">
        <mxGraphModel dx="1161" dy="281" grid="1" gridSize="10" guides="1" tooltips="1" connect="1" arrows="1" fold="1" page="1" pageScale="1" pageWidth="827" pageHeight="1169" math="0" shadow="0">
            <root>
                <mxCell id="0"/>
                <mxCell id="1" parent="0"/>
                <mxCell id="12" value="Users" style="whiteSpace=wrap;html=1;align=center;" parent="1" vertex="1">
                    <mxGeometry x="583" y="398" width="80" height="30" as="geometry"/>
                </mxCell>
                <mxCell id="14" value="" style="endArrow=none;html=1;rounded=0;entryX=0;entryY=0.5;entryDx=0;entryDy=0;exitX=0.371;exitY=0.011;exitDx=0;exitDy=0;exitPerimeter=0;" parent="1" source="12" target="65" edge="1">
                    <mxGeometry relative="1" as="geometry">
                        <mxPoint x="203" y="468" as="sourcePoint"/>
                        <mxPoint x="736.8400000000001" y="348.56999999999994" as="targetPoint"/>
                    </mxGeometry>
                </mxCell>
                <mxCell id="15" value="userName" style="ellipse;whiteSpace=wrap;html=1;align=center;" parent="1" vertex="1">
                    <mxGeometry x="713" y="363" width="90" height="30" as="geometry"/>
                </mxCell>
                <mxCell id="16" value="email" style="ellipse;whiteSpace=wrap;html=1;align=center;" parent="1" vertex="1">
                    <mxGeometry x="720" y="398" width="90" height="30" as="geometry"/>
                </mxCell>
                <mxCell id="17" value="" style="endArrow=none;html=1;rounded=0;entryX=0;entryY=1;entryDx=0;entryDy=0;exitX=1;exitY=0.75;exitDx=0;exitDy=0;" parent="1" source="12" target="15" edge="1">
                    <mxGeometry relative="1" as="geometry">
                        <mxPoint x="203" y="468" as="sourcePoint"/>
                        <mxPoint x="363" y="468" as="targetPoint"/>
                    </mxGeometry>
                </mxCell>
                <mxCell id="18" value="" style="endArrow=none;html=1;rounded=0;exitX=0;exitY=0.5;exitDx=0;exitDy=0;entryX=1;entryY=1;entryDx=0;entryDy=0;" parent="1" source="16" target="12" edge="1">
                    <mxGeometry relative="1" as="geometry">
                        <mxPoint x="203" y="468" as="sourcePoint"/>
                        <mxPoint x="363" y="468" as="targetPoint"/>
                    </mxGeometry>
                </mxCell>
                <mxCell id="19" value="sections" style="whiteSpace=wrap;html=1;align=center;" parent="1" vertex="1">
                    <mxGeometry x="53" y="338" width="90" height="30" as="geometry"/>
                </mxCell>
                <mxCell id="20" value="posts" style="whiteSpace=wrap;html=1;align=center;" parent="1" vertex="1">
                    <mxGeometry x="240.5" y="555" width="90" height="30" as="geometry"/>
                </mxCell>
                <mxCell id="21" value="comments" style="whiteSpace=wrap;html=1;align=center;" parent="1" vertex="1">
                    <mxGeometry x="283" y="263" width="80" height="30" as="geometry"/>
                </mxCell>
                <mxCell id="22" value="replies" style="whiteSpace=wrap;html=1;align=center;" parent="1" vertex="1">
                    <mxGeometry x="510" y="210" width="80" height="30" as="geometry"/>
                </mxCell>
                <mxCell id="23" value="userRoles" style="whiteSpace=wrap;html=1;align=center;" parent="1" vertex="1">
                    <mxGeometry x="613" y="568" width="80" height="30" as="geometry"/>
                </mxCell>
                <mxCell id="24" value="belongsTo" style="shape=rhombus;perimeter=rhombusPerimeter;whiteSpace=wrap;html=1;align=center;" parent="1" vertex="1">
                    <mxGeometry x="113" y="408" width="110" height="30" as="geometry"/>
                </mxCell>
                <mxCell id="25" value="creates" style="shape=rhombus;perimeter=rhombusPerimeter;whiteSpace=wrap;html=1;align=center;" parent="1" vertex="1">
                    <mxGeometry x="430" y="420" width="100" height="40" as="geometry"/>
                </mxCell>
                <mxCell id="27" value="" style="endArrow=none;html=1;rounded=0;exitX=0;exitY=0.5;exitDx=0;exitDy=0;" parent="1" source="12" target="25" edge="1">
                    <mxGeometry relative="1" as="geometry">
                        <mxPoint x="463" y="388" as="sourcePoint"/>
                        <mxPoint x="623" y="388" as="targetPoint"/>
                    </mxGeometry>
                </mxCell>
                <mxCell id="28" value="1" style="resizable=0;html=1;align=right;verticalAlign=bottom;" parent="27" connectable="0" vertex="1">
                    <mxGeometry x="1" relative="1" as="geometry"/>
                </mxCell>
                <mxCell id="32" value="have" style="shape=rhombus;perimeter=rhombusPerimeter;whiteSpace=wrap;html=1;align=center;" parent="1" vertex="1">
                    <mxGeometry x="583" y="488" width="100" height="30" as="geometry"/>
                </mxCell>
                <mxCell id="33" value="" style="endArrow=none;html=1;rounded=0;exitX=0.5;exitY=1;exitDx=0;exitDy=0;entryX=0.4;entryY=0;entryDx=0;entryDy=0;entryPerimeter=0;" parent="1" source="12" target="32" edge="1">
                    <mxGeometry relative="1" as="geometry">
                        <mxPoint x="333" y="388" as="sourcePoint"/>
                        <mxPoint x="493" y="388" as="targetPoint"/>
                    </mxGeometry>
                </mxCell>
                <mxCell id="34" value="1" style="resizable=0;html=1;align=right;verticalAlign=bottom;" parent="33" connectable="0" vertex="1">
                    <mxGeometry x="1" relative="1" as="geometry"/>
                </mxCell>
                <mxCell id="35" value="" style="shape=link;html=1;rounded=0;entryX=0.5;entryY=1;entryDx=0;entryDy=0;exitX=0.25;exitY=0;exitDx=0;exitDy=0;" parent="1" source="23" target="32" edge="1">
                    <mxGeometry relative="1" as="geometry">
                        <mxPoint x="333" y="388" as="sourcePoint"/>
                        <mxPoint x="493" y="388" as="targetPoint"/>
                    </mxGeometry>
                </mxCell>
                <mxCell id="36" value="1" style="resizable=0;html=1;align=right;verticalAlign=bottom;" parent="35" connectable="0" vertex="1">
                    <mxGeometry x="1" relative="1" as="geometry">
                        <mxPoint y="20" as="offset"/>
                    </mxGeometry>
                </mxCell>
                <mxCell id="37" value="write" style="shape=rhombus;perimeter=rhombusPerimeter;whiteSpace=wrap;html=1;align=center;" parent="1" vertex="1">
                    <mxGeometry x="443" y="358" width="100" height="40" as="geometry"/>
                </mxCell>
                <mxCell id="38" value="" style="endArrow=none;html=1;rounded=0;entryX=1;entryY=1;entryDx=0;entryDy=0;exitX=0;exitY=0;exitDx=0;exitDy=0;" parent="1" source="12" target="37" edge="1">
                    <mxGeometry relative="1" as="geometry">
                        <mxPoint x="313" y="478" as="sourcePoint"/>
                        <mxPoint x="473" y="478" as="targetPoint"/>
                    </mxGeometry>
                </mxCell>
                <mxCell id="39" value="1" style="resizable=0;html=1;align=right;verticalAlign=bottom;" parent="38" connectable="0" vertex="1">
                    <mxGeometry x="1" relative="1" as="geometry">
                        <mxPoint x="15" y="15" as="offset"/>
                    </mxGeometry>
                </mxCell>
                <mxCell id="40" value="" style="shape=link;html=1;rounded=0;exitX=0.954;exitY=1.094;exitDx=0;exitDy=0;exitPerimeter=0;entryX=0.098;entryY=0.389;entryDx=0;entryDy=0;entryPerimeter=0;" parent="1" source="21" target="37" edge="1">
                    <mxGeometry relative="1" as="geometry">
                        <mxPoint x="343" y="468" as="sourcePoint"/>
                        <mxPoint x="503" y="468" as="targetPoint"/>
                    </mxGeometry>
                </mxCell>
                <mxCell id="41" value="N" style="resizable=0;html=1;align=right;verticalAlign=bottom;" parent="40" connectable="0" vertex="1">
                    <mxGeometry x="1" relative="1" as="geometry">
                        <mxPoint x="10" y="-6" as="offset"/>
                    </mxGeometry>
                </mxCell>
                <mxCell id="42" value="write" style="shape=rhombus;perimeter=rhombusPerimeter;whiteSpace=wrap;html=1;align=center;" parent="1" vertex="1">
                    <mxGeometry x="613" y="273" width="70" height="35" as="geometry"/>
                </mxCell>
                <mxCell id="43" value="" style="endArrow=none;html=1;rounded=0;entryX=0.5;entryY=1;entryDx=0;entryDy=0;" parent="1" target="42" edge="1">
                    <mxGeometry relative="1" as="geometry">
                        <mxPoint x="596" y="398" as="sourcePoint"/>
                        <mxPoint x="578" y="378" as="targetPoint"/>
                    </mxGeometry>
                </mxCell>
                <mxCell id="44" value="1" style="resizable=0;html=1;align=right;verticalAlign=bottom;" parent="43" connectable="0" vertex="1">
                    <mxGeometry x="1" relative="1" as="geometry">
                        <mxPoint x="10" y="18" as="offset"/>
                    </mxGeometry>
                </mxCell>
                <mxCell id="45" value="" style="shape=link;html=1;rounded=0;exitX=0.5;exitY=1;exitDx=0;exitDy=0;entryX=0.5;entryY=0;entryDx=0;entryDy=0;" parent="1" source="22" target="42" edge="1">
                    <mxGeometry relative="1" as="geometry">
                        <mxPoint x="479.32000000000005" y="330.82" as="sourcePoint"/>
                        <mxPoint x="512.8000000000001" y="363.56" as="targetPoint"/>
                    </mxGeometry>
                </mxCell>
                <mxCell id="46" value="N" style="resizable=0;html=1;align=right;verticalAlign=bottom;" parent="45" connectable="0" vertex="1">
                    <mxGeometry x="1" relative="1" as="geometry">
                        <mxPoint y="-5" as="offset"/>
                    </mxGeometry>
                </mxCell>
                <mxCell id="47" value="to" style="shape=rhombus;perimeter=rhombusPerimeter;whiteSpace=wrap;html=1;align=center;" parent="1" vertex="1">
                    <mxGeometry x="397" y="233" width="80" height="20" as="geometry"/>
                </mxCell>
                <mxCell id="48" value="" style="endArrow=none;html=1;rounded=0;exitX=1;exitY=0.5;exitDx=0;exitDy=0;entryX=0;entryY=0.5;entryDx=0;entryDy=0;" parent="1" source="21" target="47" edge="1">
                    <mxGeometry relative="1" as="geometry">
                        <mxPoint x="343" y="328" as="sourcePoint"/>
                        <mxPoint x="503" y="328" as="targetPoint"/>
                    </mxGeometry>
                </mxCell>
                <mxCell id="49" value="1" style="resizable=0;html=1;align=right;verticalAlign=bottom;" parent="48" connectable="0" vertex="1">
                    <mxGeometry x="1" relative="1" as="geometry"/>
                </mxCell>
                <mxCell id="50" value="" style="shape=link;html=1;rounded=0;entryX=1;entryY=0.5;entryDx=0;entryDy=0;exitX=0;exitY=0.5;exitDx=0;exitDy=0;" parent="1" source="22" target="47" edge="1">
                    <mxGeometry relative="1" as="geometry">
                        <mxPoint x="550" y="235" as="sourcePoint"/>
                        <mxPoint x="503" y="328" as="targetPoint"/>
                    </mxGeometry>
                </mxCell>
                <mxCell id="51" value="N" style="resizable=0;html=1;align=right;verticalAlign=bottom;" parent="50" connectable="0" vertex="1">
                    <mxGeometry x="1" relative="1" as="geometry">
                        <mxPoint x="-10" y="20" as="offset"/>
                    </mxGeometry>
                </mxCell>
                <mxCell id="52" value="" style="shape=link;html=1;rounded=0;exitX=1;exitY=0.25;exitDx=0;exitDy=0;entryX=0.061;entryY=0.562;entryDx=0;entryDy=0;entryPerimeter=0;" parent="1" source="20" target="25" edge="1">
                    <mxGeometry relative="1" as="geometry">
                        <mxPoint x="373" y="398" as="sourcePoint"/>
                        <mxPoint x="533" y="398" as="targetPoint"/>
                    </mxGeometry>
                </mxCell>
                <mxCell id="53" value="N" style="resizable=0;html=1;align=right;verticalAlign=bottom;" parent="52" connectable="0" vertex="1">
                    <mxGeometry x="1" relative="1" as="geometry">
                        <mxPoint x="-6" y="-3" as="offset"/>
                    </mxGeometry>
                </mxCell>
                <mxCell id="54" value="have" style="shape=rhombus;perimeter=rhombusPerimeter;whiteSpace=wrap;html=1;align=center;" parent="1" vertex="1">
                    <mxGeometry x="240.5" y="338" width="95" height="35" as="geometry"/>
                </mxCell>
                <mxCell id="55" value="" style="endArrow=none;html=1;rounded=0;entryX=0.5;entryY=1;entryDx=0;entryDy=0;exitX=0.5;exitY=0;exitDx=0;exitDy=0;" parent="1" source="20" target="54" edge="1">
                    <mxGeometry relative="1" as="geometry">
                        <mxPoint x="323" y="448" as="sourcePoint"/>
                        <mxPoint x="483" y="448" as="targetPoint"/>
                    </mxGeometry>
                </mxCell>
                <mxCell id="56" value="1" style="resizable=0;html=1;align=right;verticalAlign=bottom;" parent="55" connectable="0" vertex="1">
                    <mxGeometry x="1" relative="1" as="geometry">
                        <mxPoint y="15" as="offset"/>
                    </mxGeometry>
                </mxCell>
                <mxCell id="57" value="" style="shape=link;html=1;rounded=0;exitX=0.062;exitY=1;exitDx=0;exitDy=0;exitPerimeter=0;entryX=0.553;entryY=0;entryDx=0;entryDy=0;entryPerimeter=0;" parent="1" source="21" target="54" edge="1">
                    <mxGeometry relative="1" as="geometry">
                        <mxPoint x="263" y="318" as="sourcePoint"/>
                        <mxPoint x="423" y="318" as="targetPoint"/>
                    </mxGeometry>
                </mxCell>
                <mxCell id="58" value="N" style="resizable=0;html=1;align=right;verticalAlign=bottom;" parent="57" connectable="0" vertex="1">
                    <mxGeometry x="1" relative="1" as="geometry">
                        <mxPoint x="-5" as="offset"/>
                    </mxGeometry>
                </mxCell>
                <mxCell id="61" value="" style="shape=link;html=1;rounded=0;entryX=1;entryY=1;entryDx=0;entryDy=0;exitX=0;exitY=0;exitDx=0;exitDy=0;" parent="1" source="20" target="24" edge="1">
                    <mxGeometry relative="1" as="geometry">
                        <mxPoint x="293" y="398" as="sourcePoint"/>
                        <mxPoint x="453" y="398" as="targetPoint"/>
                    </mxGeometry>
                </mxCell>
                <mxCell id="62" value="N" style="resizable=0;html=1;align=right;verticalAlign=bottom;" parent="61" connectable="0" vertex="1">
                    <mxGeometry x="1" relative="1" as="geometry">
                        <mxPoint y="23" as="offset"/>
                    </mxGeometry>
                </mxCell>
                <mxCell id="63" value="" style="endArrow=none;html=1;rounded=0;exitX=0.64;exitY=1.104;exitDx=0;exitDy=0;exitPerimeter=0;entryX=0;entryY=0;entryDx=0;entryDy=0;" parent="1" source="19" target="24" edge="1">
                    <mxGeometry relative="1" as="geometry">
                        <mxPoint x="293" y="398" as="sourcePoint"/>
                        <mxPoint x="453" y="398" as="targetPoint"/>
                    </mxGeometry>
                </mxCell>
                <mxCell id="64" value="1" style="resizable=0;html=1;align=right;verticalAlign=bottom;" parent="63" connectable="0" vertex="1">
                    <mxGeometry x="1" relative="1" as="geometry"/>
                </mxCell>
                <mxCell id="65" value="userId" style="ellipse;whiteSpace=wrap;html=1;align=center;fontStyle=4;" parent="1" vertex="1">
                    <mxGeometry x="740" y="328" width="80" height="30" as="geometry"/>
                </mxCell>
                <mxCell id="66" value="postID" style="ellipse;whiteSpace=wrap;html=1;align=center;fontStyle=4;" parent="1" vertex="1">
                    <mxGeometry x="120" y="632" width="80" height="30" as="geometry"/>
                </mxCell>
                <mxCell id="67" value="" style="endArrow=none;html=1;rounded=0;exitX=0.75;exitY=0;exitDx=0;exitDy=0;exitPerimeter=0;entryX=0;entryY=1;entryDx=0;entryDy=0;" parent="1" source="66" target="20" edge="1">
                    <mxGeometry relative="1" as="geometry">
                        <mxPoint x="350" y="560" as="sourcePoint"/>
                        <mxPoint x="510" y="560" as="targetPoint"/>
                    </mxGeometry>
                </mxCell>
                <mxCell id="68" value="title" style="ellipse;whiteSpace=wrap;html=1;align=center;" parent="1" vertex="1">
                    <mxGeometry x="223" y="652" width="60" height="20" as="geometry"/>
                </mxCell>
                <mxCell id="69" value="" style="endArrow=none;html=1;rounded=0;exitX=0.395;exitY=-0.126;exitDx=0;exitDy=0;exitPerimeter=0;entryX=0.352;entryY=0.978;entryDx=0;entryDy=0;entryPerimeter=0;" parent="1" source="68" target="20" edge="1">
                    <mxGeometry relative="1" as="geometry">
                        <mxPoint x="350" y="560" as="sourcePoint"/>
                        <mxPoint x="510" y="560" as="targetPoint"/>
                    </mxGeometry>
                </mxCell>
                <mxCell id="70" value="date" style="ellipse;whiteSpace=wrap;html=1;align=center;" parent="1" vertex="1">
                    <mxGeometry x="407" y="647" width="60" height="30" as="geometry"/>
                </mxCell>
                <mxCell id="71" value="postTextt" style="ellipse;whiteSpace=wrap;html=1;align=center;" parent="1" vertex="1">
                    <mxGeometry x="310" y="652" width="77" height="25" as="geometry"/>
                </mxCell>
                <mxCell id="72" value="" style="endArrow=none;html=1;rounded=0;exitX=0.629;exitY=0.99;exitDx=0;exitDy=0;exitPerimeter=0;entryX=0.253;entryY=0;entryDx=0;entryDy=0;entryPerimeter=0;" parent="1" source="20" target="71" edge="1">
                    <mxGeometry relative="1" as="geometry">
                        <mxPoint x="350" y="560" as="sourcePoint"/>
                        <mxPoint x="510" y="560" as="targetPoint"/>
                    </mxGeometry>
                </mxCell>
                <mxCell id="73" value="" style="endArrow=none;html=1;rounded=0;exitX=1;exitY=1;exitDx=0;exitDy=0;entryX=0;entryY=0;entryDx=0;entryDy=0;" parent="1" source="20" target="70" edge="1">
                    <mxGeometry relative="1" as="geometry">
                        <mxPoint x="350" y="560" as="sourcePoint"/>
                        <mxPoint x="510" y="560" as="targetPoint"/>
                    </mxGeometry>
                </mxCell>
                <mxCell id="74" value="sectionID" style="ellipse;whiteSpace=wrap;html=1;align=center;fontStyle=4;" parent="1" vertex="1">
                    <mxGeometry x="10" y="250" width="60" height="20" as="geometry"/>
                </mxCell>
                <mxCell id="75" value="" style="endArrow=none;html=1;rounded=0;exitX=0.391;exitY=1.1;exitDx=0;exitDy=0;exitPerimeter=0;entryX=0.19;entryY=-0.059;entryDx=0;entryDy=0;entryPerimeter=0;" parent="1" source="74" target="19" edge="1">
                    <mxGeometry relative="1" as="geometry">
                        <mxPoint x="270" y="420" as="sourcePoint"/>
                        <mxPoint x="430" y="420" as="targetPoint"/>
                    </mxGeometry>
                </mxCell>
                <mxCell id="76" value="name" style="ellipse;whiteSpace=wrap;html=1;align=center;" parent="1" vertex="1">
                    <mxGeometry x="83" y="250" width="67" height="17" as="geometry"/>
                </mxCell>
                <mxCell id="77" value="" style="endArrow=none;html=1;rounded=0;exitX=0.409;exitY=0.941;exitDx=0;exitDy=0;exitPerimeter=0;entryX=0.5;entryY=0;entryDx=0;entryDy=0;" parent="1" source="76" target="19" edge="1">
                    <mxGeometry relative="1" as="geometry">
                        <mxPoint x="270" y="420" as="sourcePoint"/>
                        <mxPoint x="430" y="420" as="targetPoint"/>
                    </mxGeometry>
                </mxCell>
                <mxCell id="78" value="description" style="ellipse;whiteSpace=wrap;html=1;align=center;" parent="1" vertex="1">
                    <mxGeometry x="153" y="253" width="70" height="27" as="geometry"/>
                </mxCell>
                <mxCell id="79" value="" style="endArrow=none;html=1;rounded=0;exitX=0.279;exitY=0.935;exitDx=0;exitDy=0;exitPerimeter=0;" parent="1" source="78" target="19" edge="1">
                    <mxGeometry relative="1" as="geometry">
                        <mxPoint x="270" y="420" as="sourcePoint"/>
                        <mxPoint x="430" y="420" as="targetPoint"/>
                    </mxGeometry>
                </mxCell>
                <mxCell id="80" value="commentID" style="ellipse;whiteSpace=wrap;html=1;align=center;fontStyle=4;" parent="1" vertex="1">
                    <mxGeometry x="200" y="190" width="70" height="30" as="geometry"/>
                </mxCell>
                <mxCell id="81" value="" style="endArrow=none;html=1;rounded=0;exitX=0.5;exitY=1;exitDx=0;exitDy=0;entryX=0;entryY=0;entryDx=0;entryDy=0;" parent="1" source="80" target="21" edge="1">
                    <mxGeometry relative="1" as="geometry">
                        <mxPoint x="320" y="280" as="sourcePoint"/>
                        <mxPoint x="480" y="280" as="targetPoint"/>
                    </mxGeometry>
                </mxCell>
                <mxCell id="82" value="commentText" style="ellipse;whiteSpace=wrap;html=1;align=center;" parent="1" vertex="1">
                    <mxGeometry x="283" y="170" width="80" height="30" as="geometry"/>
                </mxCell>
                <mxCell id="83" value="" style="endArrow=none;html=1;rounded=0;entryX=0;entryY=1;entryDx=0;entryDy=0;" parent="1" target="82" edge="1">
                    <mxGeometry relative="1" as="geometry">
                        <mxPoint x="310" y="260" as="sourcePoint"/>
                        <mxPoint x="480" y="280" as="targetPoint"/>
                    </mxGeometry>
                </mxCell>
                <mxCell id="84" value="date" style="ellipse;whiteSpace=wrap;html=1;align=center;" parent="1" vertex="1">
                    <mxGeometry x="377.5" y="180" width="57" height="20" as="geometry"/>
                </mxCell>
                <mxCell id="85" value="" style="endArrow=none;html=1;rounded=0;entryX=0;entryY=1;entryDx=0;entryDy=0;" parent="1" source="21" target="84" edge="1">
                    <mxGeometry relative="1" as="geometry">
                        <mxPoint x="340" y="240" as="sourcePoint"/>
                        <mxPoint x="480" y="280" as="targetPoint"/>
                    </mxGeometry>
                </mxCell>
                <mxCell id="86" value="replyText" style="ellipse;whiteSpace=wrap;html=1;align=center;" parent="1" vertex="1">
                    <mxGeometry x="543" y="150" width="70" height="20" as="geometry"/>
                </mxCell>
                <mxCell id="87" value="replyID" style="ellipse;whiteSpace=wrap;html=1;align=center;fontStyle=4;" parent="1" vertex="1">
                    <mxGeometry x="460" y="160" width="65.5" height="20" as="geometry"/>
                </mxCell>
                <mxCell id="88" value="date" style="ellipse;whiteSpace=wrap;html=1;align=center;" parent="1" vertex="1">
                    <mxGeometry x="640" y="170" width="60" height="30" as="geometry"/>
                </mxCell>
                <mxCell id="89" value="" style="endArrow=none;html=1;rounded=0;" parent="1" source="87" target="22" edge="1">
                    <mxGeometry relative="1" as="geometry">
                        <mxPoint x="320" y="280" as="sourcePoint"/>
                        <mxPoint x="480" y="280" as="targetPoint"/>
                    </mxGeometry>
                </mxCell>
                <mxCell id="91" value="" style="endArrow=none;html=1;rounded=0;entryX=0.5;entryY=1;entryDx=0;entryDy=0;" parent="1" source="22" target="86" edge="1">
                    <mxGeometry relative="1" as="geometry">
                        <mxPoint x="320" y="280" as="sourcePoint"/>
                        <mxPoint x="480" y="280" as="targetPoint"/>
                    </mxGeometry>
                </mxCell>
                <mxCell id="92" value="" style="endArrow=none;html=1;rounded=0;entryX=0;entryY=1;entryDx=0;entryDy=0;exitX=0.75;exitY=0;exitDx=0;exitDy=0;" parent="1" source="22" target="88" edge="1">
                    <mxGeometry relative="1" as="geometry">
                        <mxPoint x="320" y="280" as="sourcePoint"/>
                        <mxPoint x="480" y="280" as="targetPoint"/>
                    </mxGeometry>
                </mxCell>
                <mxCell id="93" value="roleID" style="ellipse;whiteSpace=wrap;html=1;align=center;fontStyle=4;" parent="1" vertex="1">
                    <mxGeometry x="573" y="650" width="67" height="30" as="geometry"/>
                </mxCell>
                <mxCell id="94" value="" style="endArrow=none;html=1;rounded=0;exitX=1;exitY=0;exitDx=0;exitDy=0;" parent="1" source="93" target="23" edge="1">
                    <mxGeometry relative="1" as="geometry">
                        <mxPoint x="320" y="490" as="sourcePoint"/>
                        <mxPoint x="480" y="490" as="targetPoint"/>
                    </mxGeometry>
                </mxCell>
                <mxCell id="97" value="roleName" style="ellipse;whiteSpace=wrap;html=1;align=center;" parent="1" vertex="1">
                    <mxGeometry x="713" y="660" width="70" height="20" as="geometry"/>
                </mxCell>
                <mxCell id="98" value="" style="endArrow=none;html=1;rounded=0;entryX=0;entryY=0;entryDx=0;entryDy=0;exitX=0.75;exitY=1;exitDx=0;exitDy=0;" parent="1" source="23" target="97" edge="1">
                    <mxGeometry relative="1" as="geometry">
                        <mxPoint x="320" y="560" as="sourcePoint"/>
                        <mxPoint x="480" y="560" as="targetPoint"/>
                    </mxGeometry>
                </mxCell>
                <mxCell id="99" value="passWord" style="ellipse;whiteSpace=wrap;html=1;align=center;" parent="1" vertex="1">
                    <mxGeometry x="733" y="443" width="70" height="30" as="geometry"/>
                </mxCell>
                <mxCell id="100" value="" style="endArrow=none;html=1;rounded=0;entryX=0;entryY=0.5;entryDx=0;entryDy=0;exitX=0.75;exitY=1;exitDx=0;exitDy=0;" parent="1" source="12" target="99" edge="1">
                    <mxGeometry relative="1" as="geometry">
                        <mxPoint x="330" y="400" as="sourcePoint"/>
                        <mxPoint x="490" y="400" as="targetPoint"/>
                    </mxGeometry>
                </mxCell>
                <mxCell id="101" value="votes" style="shape=rhombus;perimeter=rhombusPerimeter;whiteSpace=wrap;html=1;align=center;" parent="1" vertex="1">
                    <mxGeometry x="430" y="510" width="80" height="35" as="geometry"/>
                </mxCell>
                <mxCell id="107" value="likes" style="shape=rhombus;perimeter=rhombusPerimeter;whiteSpace=wrap;html=1;align=center;" parent="1" vertex="1">
                    <mxGeometry x="460" y="293" width="80" height="35" as="geometry"/>
                </mxCell>
                <mxCell id="112" value="" style="endArrow=none;html=1;rounded=0;entryX=1;entryY=0.5;entryDx=0;entryDy=0;exitX=0;exitY=1;exitDx=0;exitDy=0;" parent="1" source="12" target="101" edge="1">
                    <mxGeometry relative="1" as="geometry">
                        <mxPoint x="350" y="488" as="sourcePoint"/>
                        <mxPoint x="510" y="488" as="targetPoint"/>
                    </mxGeometry>
                </mxCell>
                <mxCell id="113" value="N" style="resizable=0;html=1;align=right;verticalAlign=bottom;" parent="112" connectable="0" vertex="1">
                    <mxGeometry x="1" relative="1" as="geometry"/>
                </mxCell>
                <mxCell id="114" value="" style="endArrow=none;html=1;rounded=0;entryX=0;entryY=0.5;entryDx=0;entryDy=0;exitX=1;exitY=0.5;exitDx=0;exitDy=0;" parent="1" source="20" target="101" edge="1">
                    <mxGeometry relative="1" as="geometry">
                        <mxPoint x="350" y="582.5" as="sourcePoint"/>
                        <mxPoint x="510" y="582.5" as="targetPoint"/>
                    </mxGeometry>
                </mxCell>
                <mxCell id="115" value="M" style="resizable=0;html=1;align=right;verticalAlign=bottom;" parent="114" connectable="0" vertex="1">
                    <mxGeometry x="1" relative="1" as="geometry"/>
                </mxCell>
                <mxCell id="117" value="" style="endArrow=none;html=1;rounded=0;entryX=1;entryY=0.5;entryDx=0;entryDy=0;exitX=0.129;exitY=0.048;exitDx=0;exitDy=0;exitPerimeter=0;" parent="1" source="12" target="107" edge="1">
                    <mxGeometry relative="1" as="geometry">
                        <mxPoint x="563" y="298.5" as="sourcePoint"/>
                        <mxPoint x="490" y="398" as="targetPoint"/>
                    </mxGeometry>
                </mxCell>
                <mxCell id="118" value="N" style="resizable=0;html=1;align=right;verticalAlign=bottom;" parent="117" connectable="0" vertex="1">
                    <mxGeometry x="1" relative="1" as="geometry"/>
                </mxCell>
                <mxCell id="119" value="" style="endArrow=none;html=1;rounded=0;entryX=0;entryY=0.5;entryDx=0;entryDy=0;exitX=1;exitY=0.75;exitDx=0;exitDy=0;" parent="1" source="21" target="107" edge="1">
                    <mxGeometry relative="1" as="geometry">
                        <mxPoint x="335.5" y="364.25" as="sourcePoint"/>
                        <mxPoint x="435" y="321.75" as="targetPoint"/>
                    </mxGeometry>
                </mxCell>
                <mxCell id="120" value="M" style="resizable=0;html=1;align=right;verticalAlign=bottom;" parent="119" connectable="0" vertex="1">
                    <mxGeometry x="1" relative="1" as="geometry"/>
                </mxCell>
            </root>
        </mxGraphModel>
    </diagram>
</mxfile>